<svg id="Layer_1" data-name="Layer 1" xmlns="http://www.w3.org/2000/svg" viewBox="0 0 390.64 512"><defs><style>.cls-1{fill:#fff;}</style></defs><title>logopng light</title><path class="cls-1" d="M298.09,0H92.55A92.56,92.56,0,0,0,0,92.55V417c0,.57,0,1.15,0,1.73A95,95,0,0,0,95,512h99.3a95,95,0,0,0,95-95V393H252.53V417.2A58.83,58.83,0,0,1,193.69,476H95.62A58.84,58.84,0,0,1,83.36,359.65v72.53L117.55,404l36.3,28.19V358.36H298.09a92.56,92.56,0,0,0,92.55-92.55V92.55A92.56,92.56,0,0,0,298.09,0ZM351,263.36A58.63,58.63,0,0,1,292.37,322H98.17a58.52,58.52,0,0,1-58.53-58.53V93.78A57.41,57.41,0,0,1,97.05,36.37H293.59A57.41,57.41,0,0,1,351,93.78Z"/></svg>